#define max_width 13
#define max_height 13
static unsigned char max_bits[] = {
   0xff, 0x1f, 0xff, 0x1f, 0x03, 0x18, 0x03, 0x18, 0x03, 0x18, 0x03, 0x18,
   0x03, 0x18, 0x03, 0x18, 0x03, 0x18, 0x03, 0x18, 0x03, 0x18, 0xff, 0x1f,
   0xff, 0x1f};
