#define O_width 13
#define O_height 13
static unsigned char O_bits[] = {
   0xff, 0x1f, 0x01, 0x10, 0x01, 0x10, 0x01, 0x10, 0x01, 0x10, 0x01, 0x10,
   0x01, 0x10, 0x01, 0x10, 0x01, 0x10, 0x01, 0x10, 0x01, 0x10, 0x01, 0x10,
   0xff, 0x1f};
