#define resize_width 13
#define resize_height 13
static unsigned char resize_bits[] = {
   0xff, 0x1f, 0x21, 0x11, 0x21, 0x11, 0x21, 0x11, 0x21, 0x11, 0x3f, 0x11,
   0x01, 0x11, 0x01, 0x11, 0xff, 0x11, 0x01, 0x10, 0x01, 0x10, 0x01, 0x10,
   0xff, 0x1f};
