#define r_width 13
#define r_height 13
static unsigned char r_bits[] = {
   0x63, 0x00, 0xc6, 0x00, 0x8c, 0x01, 0x18, 0x03, 0x30, 0x06, 0x60, 0x0c,
   0xc0, 0x18, 0x60, 0x0c, 0x30, 0x06, 0x18, 0x03, 0x8c, 0x01, 0xc6, 0x00,
   0x63, 0x00};
