#define up_width 11
#define up_height 11
static unsigned char up_bits[] = {
   0x20, 0x00, 0x70, 0x00, 0xf8, 0x00, 0xdc, 0x01, 0x8e, 0x03, 0x27, 0x07,
   0x73, 0x06, 0xf8, 0x00, 0xdc, 0x01, 0x8e, 0x03, 0x06, 0x03};
