#define X_width 13
#define X_height 13
static unsigned char X_bits[] = {
   0x03, 0x18, 0x07, 0x1c, 0x0e, 0x0e, 0x1c, 0x07, 0xb8, 0x03, 0xf0, 0x01,
   0xe0, 0x00, 0xf0, 0x01, 0xb8, 0x03, 0x1c, 0x07, 0x0e, 0x0e, 0x07, 0x1c,
   0x03, 0x18};
